<svg width="58" height="49" viewBox="0 0 58 49" fill="none" xmlns="http://www.w3.org/2000/svg">
<path fill-rule="evenodd" clip-rule="evenodd" d="M7.12085 0.878695C8.29242 -0.292878 10.1919 -0.292878 11.3635 0.878695L28.4995 18.0147L45.6356 0.878695C46.8071 -0.292878 48.7066 -0.292878 49.8782 0.878695C51.0498 2.05027 51.0498 3.94976 49.8782 5.12134L30.6229 24.3767C30.6222 24.3773 30.6215 24.378 30.6208 24.3787C30.4744 24.5251 30.3166 24.6533 30.1502 24.7631C28.9858 25.532 27.4033 25.4038 26.3782 24.3787C26.3775 24.378 26.3769 24.3773 26.3762 24.3767L7.12085 5.12134C5.94927 3.94976 5.94927 2.05027 7.12085 0.878695ZM5.36349 17.8787C4.19192 16.7071 2.29242 16.7071 1.12085 17.8787C-0.0507256 19.0503 -0.0507256 20.9498 1.12085 22.1213L26.8782 47.8787C28.0498 49.0503 29.9493 49.0503 31.1208 47.8787L56.8782 22.1213C58.0498 20.9498 58.0498 19.0503 56.8782 17.8787C55.7066 16.7071 53.8071 16.7071 52.6356 17.8787L28.9995 41.5147L5.36349 17.8787Z" fill="black" fill-opacity="0.75"/>
</svg>
