<svg width="203" height="70" viewBox="0 0 203 70" fill="none" xmlns="http://www.w3.org/2000/svg">
<g filter="url(#filter0_d)">
<rect x="16" y="6" width="181" height="48" rx="24" fill="white" stroke="#22D6D6" stroke-width="2"/>
<path d="M188.921 32.7071C189.311 32.3166 189.311 31.6834 188.921 31.2929L182.557 24.9289C182.166 24.5384 181.533 24.5384 181.143 24.9289C180.752 25.3195 180.752 25.9526 181.143 26.3431L186.8 32L181.143 37.6569C180.752 38.0474 180.752 38.6805 181.143 39.0711C181.533 39.4616 182.166 39.4616 182.557 39.0711L188.921 32.7071ZM160.813 33H188.214V31H160.813V33Z" fill="#22D6D6"/>
<path d="M67.94 24.4H69.74V35.434H76.562V37H67.94V24.4ZM82.0685 37.108C81.1205 37.108 80.2685 36.898 79.5125 36.478C78.7565 36.058 78.1625 35.482 77.7305 34.75C77.3105 34.006 77.1005 33.166 77.1005 32.23C77.1005 31.294 77.3105 30.46 77.7305 29.728C78.1625 28.984 78.7565 28.408 79.5125 28C80.2685 27.58 81.1205 27.37 82.0685 27.37C83.0165 27.37 83.8625 27.58 84.6065 28C85.3625 28.408 85.9505 28.984 86.3705 29.728C86.8025 30.46 87.0185 31.294 87.0185 32.23C87.0185 33.166 86.8025 34.006 86.3705 34.75C85.9505 35.482 85.3625 36.058 84.6065 36.478C83.8625 36.898 83.0165 37.108 82.0685 37.108ZM82.0685 35.596C82.6805 35.596 83.2265 35.458 83.7065 35.182C84.1985 34.894 84.5825 34.498 84.8585 33.994C85.1345 33.478 85.2725 32.89 85.2725 32.23C85.2725 31.57 85.1345 30.988 84.8585 30.484C84.5825 29.968 84.1985 29.572 83.7065 29.296C83.2265 29.02 82.6805 28.882 82.0685 28.882C81.4565 28.882 80.9045 29.02 80.4125 29.296C79.9325 29.572 79.5485 29.968 79.2605 30.484C78.9845 30.988 78.8465 31.57 78.8465 32.23C78.8465 32.89 78.9845 33.478 79.2605 33.994C79.5485 34.498 79.9325 34.894 80.4125 35.182C80.9045 35.458 81.4565 35.596 82.0685 35.596ZM98.2642 27.46V35.704C98.2642 37.372 97.8502 38.602 97.0222 39.394C96.1942 40.198 94.9582 40.6 93.3142 40.6C92.4142 40.6 91.5562 40.474 90.7402 40.222C89.9242 39.982 89.2642 39.634 88.7602 39.178L89.5882 37.846C90.0322 38.23 90.5782 38.53 91.2262 38.746C91.8862 38.974 92.5642 39.088 93.2602 39.088C94.3762 39.088 95.1982 38.824 95.7262 38.296C96.2662 37.768 96.5362 36.964 96.5362 35.884V35.128C96.1282 35.62 95.6242 35.992 95.0242 36.244C94.4362 36.484 93.7942 36.604 93.0982 36.604C92.1862 36.604 91.3582 36.412 90.6142 36.028C89.8822 35.632 89.3062 35.086 88.8862 34.39C88.4662 33.682 88.2562 32.878 88.2562 31.978C88.2562 31.078 88.4662 30.28 88.8862 29.584C89.3062 28.876 89.8822 28.33 90.6142 27.946C91.3582 27.562 92.1862 27.37 93.0982 27.37C93.8182 27.37 94.4842 27.502 95.0962 27.766C95.7202 28.03 96.2302 28.42 96.6262 28.936V27.46H98.2642ZM93.2962 35.092C93.9202 35.092 94.4782 34.96 94.9702 34.696C95.4742 34.432 95.8642 34.066 96.1402 33.598C96.4282 33.118 96.5722 32.578 96.5722 31.978C96.5722 31.054 96.2662 30.31 95.6542 29.746C95.0422 29.17 94.2562 28.882 93.2962 28.882C92.3242 28.882 91.5322 29.17 90.9202 29.746C90.3082 30.31 90.0022 31.054 90.0022 31.978C90.0022 32.578 90.1402 33.118 90.4162 33.598C90.7042 34.066 91.0942 34.432 91.5862 34.696C92.0902 34.96 92.6602 35.092 93.2962 35.092ZM106.112 24.4H107.912V37H106.112V24.4ZM116.256 27.37C117.468 27.37 118.428 27.724 119.136 28.432C119.856 29.128 120.216 30.154 120.216 31.51V37H118.488V31.708C118.488 30.784 118.266 30.088 117.822 29.62C117.378 29.152 116.742 28.918 115.914 28.918C114.978 28.918 114.24 29.194 113.7 29.746C113.16 30.286 112.89 31.066 112.89 32.086V37H111.162V27.46H112.818V28.9C113.166 28.408 113.634 28.03 114.222 27.766C114.822 27.502 115.5 27.37 116.256 27.37Z" fill="#22D6D6"/>
</g>
<defs>
<filter id="filter0_d" x="0" y="0" width="203" height="70" filterUnits="userSpaceOnUse" color-interpolation-filters="sRGB">
<feFlood flood-opacity="0" result="BackgroundImageFix"/>
<feColorMatrix in="SourceAlpha" type="matrix" values="0 0 0 0 0 0 0 0 0 0 0 0 0 0 0 0 0 0 127 0"/>
<feOffset dx="-5" dy="5"/>
<feGaussianBlur stdDeviation="5"/>
<feColorMatrix type="matrix" values="0 0 0 0 0 0 0 0 0 0 0 0 0 0 0 0 0 0 0.15 0"/>
<feBlend mode="normal" in2="BackgroundImageFix" result="effect1_dropShadow"/>
<feBlend mode="normal" in="SourceGraphic" in2="effect1_dropShadow" result="shape"/>
</filter>
</defs>
</svg>
