<svg width="72" height="60" viewBox="0 0 72 60" fill="none" xmlns="http://www.w3.org/2000/svg">
<path d="M10.2674 0.835142C8.85567 1.14349 7.63642 1.83728 6.54551 2.94221C5.42894 4.05998 4.86423 5.04927 4.49204 6.50109C4.23535 7.46469 4.23535 8.00431 4.23535 28.9593C4.23535 46.7281 4.27385 50.5696 4.41503 51.2634C5.04391 54.2056 7.34124 56.4925 10.2931 57.0964C11.1787 57.2763 13.938 57.3019 36.3466 57.3019C64.107 57.3019 62.3231 57.3533 64.1712 56.454C65.4161 55.8373 66.9049 54.3855 67.5081 53.2034C68.4065 51.4176 68.3295 52.9336 68.368 34.7923C68.4193 16.7923 68.445 17.4219 67.6493 15.7773C66.8151 14.03 65.0824 12.4754 63.26 11.8202C62.4771 11.5375 62.1819 11.5246 57.7798 11.4347L53.1338 11.3448L52.3252 10.9465C51.2215 10.394 50.6439 9.88011 47.1145 6.21844C43.7391 2.72379 42.9434 2.00431 41.9038 1.49039C40.261 0.693814 40.9798 0.71951 25.3477 0.693814C13.4247 0.668118 10.9605 0.680966 10.2674 0.835142ZM39.337 5.76876C40.1455 6.16705 40.6846 6.66812 44.599 10.5354C47.8846 13.7987 49.1295 14.9551 49.63 15.212C50.9776 15.8801 51.4012 15.9315 56.3423 15.9315C61.4504 15.9315 61.7969 15.9829 62.7209 16.7538C63.0161 17.0107 63.3498 17.4861 63.5167 17.8458L63.7862 18.4882L63.7605 34.5225C63.722 49.4133 63.7092 50.5825 63.5038 50.9551C63.1958 51.5204 62.6054 52.0857 62.0279 52.3683C61.553 52.5996 60.8215 52.6124 36.2568 52.6124C11.8332 52.6124 10.9605 52.5996 10.5241 52.3683C9.89525 52.0343 9.39471 51.5461 9.07386 50.9422L8.7915 50.4283V28.9722C8.7915 8.28696 8.80434 7.50324 9.03535 7.06641C9.48455 6.21844 10.1519 5.66598 11.0375 5.38332C11.2172 5.33193 17.4546 5.29339 24.8985 5.30623L38.4386 5.33193L39.337 5.76876Z" fill="black"/>
<path d="M41.4027 19.6574C40.9663 19.7987 40.3503 20.3511 40.0936 20.8394C39.8754 21.2505 39.8626 22.1627 40.0551 22.7152C40.1449 22.985 41.454 24.3083 44.0594 26.7494L47.9225 30.3854L33.7535 30.4496L19.5717 30.5139L19.0968 30.8094C17.5438 31.773 17.6594 34.0856 19.3021 34.8308C19.8027 35.0621 20.4829 35.0749 33.792 35.0749C41.9545 35.0749 47.7428 35.1263 47.7171 35.1905C47.7043 35.2548 46.9342 36 46.0102 36.8479C43.1481 39.4818 40.5556 41.9614 40.3374 42.2569C39.6059 43.2976 40.0422 44.955 41.2102 45.546C41.6979 45.803 42.7118 45.7901 43.2123 45.5203C43.623 45.289 51.0155 38.4796 52.8251 36.6552C53.454 36.0385 53.8904 35.4475 54.1856 34.8565C54.5834 34.0342 54.6091 33.9057 54.6091 32.6338C54.6091 31.4132 54.5706 31.2205 54.2626 30.6424C54.0829 30.2826 53.7107 29.743 53.4283 29.4347C52.4914 28.3426 43.3663 19.8886 42.9299 19.7087C42.4422 19.5032 41.9674 19.4903 41.4027 19.6574Z" fill="black"/>
</svg>
