<svg width="493" height="568" viewBox="0 0 493 568" fill="none" xmlns="http://www.w3.org/2000/svg">
<g filter="url(#filter0_d)">
<path d="M30 10H482.571V538H30V10Z" fill="#E5E5E5"/>
<path d="M30.5 536.648V11.3516L255.627 274L30.5 536.648ZM31.0871 537.5L256.286 274.768L481.484 537.5H31.0871ZM482.071 536.648L256.944 274L482.071 11.3516V536.648ZM481.484 10.5L256.286 273.232L31.0871 10.5H481.484Z" stroke="black" stroke-opacity="0.3"/>
<ellipse cx="256.286" cy="274" rx="49.6175" ry="49.7829" fill="#C2C3C4"/>
<path d="M273.606 271.027C275.601 272.183 275.601 275.063 273.606 276.219L249.325 290.284C247.325 291.443 244.821 290 244.821 287.688V259.557C244.821 257.246 247.325 255.803 249.325 256.961L273.606 271.027Z" fill="white"/>
</g>
<defs>
<filter id="filter0_d" x="0" y="0" width="492.571" height="568" filterUnits="userSpaceOnUse" color-interpolation-filters="sRGB">
<feFlood flood-opacity="0" result="BackgroundImageFix"/>
<feColorMatrix in="SourceAlpha" type="matrix" values="0 0 0 0 0 0 0 0 0 0 0 0 0 0 0 0 0 0 127 0"/>
<feOffset dx="-10" dy="10"/>
<feGaussianBlur stdDeviation="10"/>
<feColorMatrix type="matrix" values="0 0 0 0 0 0 0 0 0 0 0 0 0 0 0 0 0 0 0.15 0"/>
<feBlend mode="normal" in2="BackgroundImageFix" result="effect1_dropShadow"/>
<feBlend mode="normal" in="SourceGraphic" in2="effect1_dropShadow" result="shape"/>
</filter>
</defs>
</svg>
