<svg width="24" height="23" viewBox="0 0 24 23" fill="none" xmlns="http://www.w3.org/2000/svg">
<path fill-rule="evenodd" clip-rule="evenodd" d="M11.721 21.6731C17.2173 21.6731 21.6729 17.2174 21.6729 11.7211C21.6729 6.22485 17.2173 1.76923 11.721 1.76923C6.22467 1.76923 1.76904 6.22485 1.76904 11.7211C1.76904 17.2174 6.22467 21.6731 11.721 21.6731ZM11.9421 17.25C14.8734 17.25 17.2498 14.8737 17.2498 11.9423C17.2498 9.01095 14.8734 6.63462 11.9421 6.63462C9.01071 6.63462 6.63437 9.01095 6.63437 11.9423C6.63437 14.8737 9.01071 17.25 11.9421 17.25Z" fill="#22D6D6"/>
<rect x="9.73096" y="17.6923" width="5.30769" height="5.30769" rx="2" fill="#22D6D6"/>
<rect x="9.28857" width="5.30769" height="5.30769" rx="2" fill="#22D6D6"/>
<rect x="14.5962" y="5.52234" width="5.30769" height="5.30769" rx="2" transform="rotate(-45 14.5962 5.52234)" fill="#22D6D6"/>
<rect x="1.76904" y="5.08002" width="5.30769" height="5.30769" rx="2" transform="rotate(-45 1.76904 5.08002)" fill="#22D6D6"/>
<rect x="1.76904" y="18.3492" width="5.30769" height="5.30769" rx="2" transform="rotate(-45 1.76904 18.3492)" fill="#22D6D6"/>
<rect x="14.5962" y="17.907" width="5.30769" height="5.30769" rx="2" transform="rotate(-45 14.5962 17.907)" fill="#22D6D6"/>
<rect y="9.28845" width="5.30769" height="5.30769" rx="2" fill="#22D6D6"/>
<rect x="18.1348" y="8.84613" width="5.30769" height="5.30769" rx="2" fill="#22D6D6"/>
</svg>
