<svg width="203" height="70" viewBox="0 0 203 70" fill="none" xmlns="http://www.w3.org/2000/svg">
<g filter="url(#filter0_d)">
<rect x="15" y="5" width="183" height="50" rx="25" fill="#22D6D6"/>
<path d="M188.921 32.7071C189.311 32.3166 189.311 31.6834 188.921 31.2929L182.557 24.9289C182.166 24.5384 181.533 24.5384 181.143 24.9289C180.752 25.3195 180.752 25.9526 181.143 26.3431L186.8 32L181.143 37.6569C180.752 38.0474 180.752 38.6805 181.143 39.0711C181.533 39.4616 182.166 39.4616 182.557 39.0711L188.921 32.7071ZM160.813 33H188.214V31H160.813V33Z" fill="white"/>
<path d="M40.139 37.144C38.879 37.144 37.739 36.868 36.719 36.316C35.711 35.752 34.919 34.984 34.343 34.012C33.767 33.028 33.479 31.924 33.479 30.7C33.479 29.476 33.767 28.378 34.343 27.406C34.919 26.422 35.717 25.654 36.737 25.102C37.757 24.538 38.897 24.256 40.157 24.256C41.141 24.256 42.041 24.424 42.857 24.76C43.673 25.084 44.369 25.57 44.945 26.218L43.775 27.352C42.827 26.356 41.645 25.858 40.229 25.858C39.293 25.858 38.447 26.068 37.691 26.488C36.935 26.908 36.341 27.49 35.909 28.234C35.489 28.966 35.279 29.788 35.279 30.7C35.279 31.612 35.489 32.44 35.909 33.184C36.341 33.916 36.935 34.492 37.691 34.912C38.447 35.332 39.293 35.542 40.229 35.542C41.633 35.542 42.815 35.038 43.775 34.03L44.945 35.164C44.369 35.812 43.667 36.304 42.839 36.64C42.023 36.976 41.123 37.144 40.139 37.144ZM48.6468 29.062C48.9468 28.51 49.3908 28.09 49.9788 27.802C50.5668 27.514 51.2808 27.37 52.1208 27.37V29.044C52.0248 29.032 51.8928 29.026 51.7248 29.026C50.7888 29.026 50.0508 29.308 49.5108 29.872C48.9828 30.424 48.7188 31.216 48.7188 32.248V37H46.9908V27.46H48.6468V29.062ZM62.5147 32.284C62.5147 32.416 62.5027 32.59 62.4787 32.806H54.7387C54.8467 33.646 55.2127 34.324 55.8367 34.84C56.4727 35.344 57.2587 35.596 58.1947 35.596C59.3347 35.596 60.2527 35.212 60.9487 34.444L61.9027 35.56C61.4707 36.064 60.9307 36.448 60.2827 36.712C59.6467 36.976 58.9327 37.108 58.1407 37.108C57.1327 37.108 56.2387 36.904 55.4587 36.496C54.6787 36.076 54.0727 35.494 53.6407 34.75C53.2207 34.006 53.0107 33.166 53.0107 32.23C53.0107 31.306 53.2147 30.472 53.6227 29.728C54.0427 28.984 54.6127 28.408 55.3327 28C56.0647 27.58 56.8867 27.37 57.7987 27.37C58.7107 27.37 59.5207 27.58 60.2287 28C60.9487 28.408 61.5067 28.984 61.9027 29.728C62.3107 30.472 62.5147 31.324 62.5147 32.284ZM57.7987 28.828C56.9707 28.828 56.2747 29.08 55.7107 29.584C55.1587 30.088 54.8347 30.748 54.7387 31.564H60.8587C60.7627 30.76 60.4327 30.106 59.8687 29.602C59.3167 29.086 58.6267 28.828 57.7987 28.828ZM67.8545 27.37C69.1745 27.37 70.1825 27.694 70.8785 28.342C71.5865 28.99 71.9405 29.956 71.9405 31.24V37H70.3025V35.74C70.0145 36.184 69.6005 36.526 69.0605 36.766C68.5325 36.994 67.9025 37.108 67.1705 37.108C66.1025 37.108 65.2445 36.85 64.5965 36.334C63.9605 35.818 63.6425 35.14 63.6425 34.3C63.6425 33.46 63.9485 32.788 64.5605 32.284C65.1725 31.768 66.1445 31.51 67.4765 31.51H70.2125V31.168C70.2125 30.424 69.9965 29.854 69.5645 29.458C69.1325 29.062 68.4965 28.864 67.6565 28.864C67.0925 28.864 66.5405 28.96 66.0005 29.152C65.4605 29.332 65.0045 29.578 64.6325 29.89L63.9125 28.594C64.4045 28.198 64.9925 27.898 65.6765 27.694C66.3605 27.478 67.0865 27.37 67.8545 27.37ZM67.4585 35.776C68.1185 35.776 68.6885 35.632 69.1685 35.344C69.6485 35.044 69.9965 34.624 70.2125 34.084V32.752H67.5485C66.0845 32.752 65.3525 33.244 65.3525 34.228C65.3525 34.708 65.5385 35.086 65.9105 35.362C66.2825 35.638 66.7985 35.776 67.4585 35.776ZM80.2323 36.442C79.9803 36.658 79.6683 36.826 79.2963 36.946C78.9243 37.054 78.5403 37.108 78.1443 37.108C77.1843 37.108 76.4403 36.85 75.9123 36.334C75.3843 35.818 75.1203 35.08 75.1203 34.12V28.882H73.5003V27.46H75.1203V25.372H76.8483V27.46H79.5843V28.882H76.8483V34.048C76.8483 34.564 76.9743 34.96 77.2263 35.236C77.4903 35.512 77.8623 35.65 78.3423 35.65C78.8703 35.65 79.3203 35.5 79.6923 35.2L80.2323 36.442ZM90.357 32.284C90.357 32.416 90.345 32.59 90.321 32.806H82.581C82.689 33.646 83.055 34.324 83.679 34.84C84.315 35.344 85.101 35.596 86.037 35.596C87.177 35.596 88.095 35.212 88.791 34.444L89.745 35.56C89.313 36.064 88.773 36.448 88.125 36.712C87.489 36.976 86.775 37.108 85.983 37.108C84.975 37.108 84.081 36.904 83.301 36.496C82.521 36.076 81.915 35.494 81.483 34.75C81.063 34.006 80.853 33.166 80.853 32.23C80.853 31.306 81.057 30.472 81.465 29.728C81.885 28.984 82.455 28.408 83.175 28C83.907 27.58 84.729 27.37 85.641 27.37C86.553 27.37 87.363 27.58 88.071 28C88.791 28.408 89.349 28.984 89.745 29.728C90.153 30.472 90.357 31.324 90.357 32.284ZM85.641 28.828C84.813 28.828 84.117 29.08 83.553 29.584C83.001 30.088 82.677 30.748 82.581 31.564H88.701C88.605 30.76 88.275 30.106 87.711 29.602C87.159 29.086 86.469 28.828 85.641 28.828ZM105.33 33.85H98.6345L97.2485 37H95.3945L101.1 24.4H102.882L108.606 37H106.716L105.33 33.85ZM104.7 32.41L101.982 26.236L99.2645 32.41H104.7ZM117.914 27.46L113.738 37H111.974L107.798 27.46H109.598L112.874 35.11L116.222 27.46H117.914ZM122.432 27.37C123.752 27.37 124.76 27.694 125.456 28.342C126.164 28.99 126.518 29.956 126.518 31.24V37H124.88V35.74C124.592 36.184 124.178 36.526 123.638 36.766C123.11 36.994 122.48 37.108 121.748 37.108C120.68 37.108 119.822 36.85 119.174 36.334C118.538 35.818 118.22 35.14 118.22 34.3C118.22 33.46 118.526 32.788 119.138 32.284C119.75 31.768 120.722 31.51 122.054 31.51H124.79V31.168C124.79 30.424 124.574 29.854 124.142 29.458C123.71 29.062 123.074 28.864 122.234 28.864C121.67 28.864 121.118 28.96 120.578 29.152C120.038 29.332 119.582 29.578 119.21 29.89L118.49 28.594C118.982 28.198 119.57 27.898 120.254 27.694C120.938 27.478 121.664 27.37 122.432 27.37ZM122.036 35.776C122.696 35.776 123.266 35.632 123.746 35.344C124.226 35.044 124.574 34.624 124.79 34.084V32.752H122.126C120.662 32.752 119.93 33.244 119.93 34.228C119.93 34.708 120.116 35.086 120.488 35.362C120.86 35.638 121.376 35.776 122.036 35.776ZM134.81 36.442C134.558 36.658 134.246 36.826 133.874 36.946C133.502 37.054 133.118 37.108 132.722 37.108C131.762 37.108 131.018 36.85 130.49 36.334C129.962 35.818 129.698 35.08 129.698 34.12V28.882H128.078V27.46H129.698V25.372H131.426V27.46H134.162V28.882H131.426V34.048C131.426 34.564 131.552 34.96 131.804 35.236C132.068 35.512 132.44 35.65 132.92 35.65C133.448 35.65 133.898 35.5 134.27 35.2L134.81 36.442ZM140.103 27.37C141.423 27.37 142.431 27.694 143.127 28.342C143.835 28.99 144.189 29.956 144.189 31.24V37H142.551V35.74C142.263 36.184 141.849 36.526 141.309 36.766C140.781 36.994 140.151 37.108 139.419 37.108C138.351 37.108 137.493 36.85 136.845 36.334C136.209 35.818 135.891 35.14 135.891 34.3C135.891 33.46 136.197 32.788 136.809 32.284C137.421 31.768 138.393 31.51 139.725 31.51H142.461V31.168C142.461 30.424 142.245 29.854 141.813 29.458C141.381 29.062 140.745 28.864 139.905 28.864C139.341 28.864 138.789 28.96 138.249 29.152C137.709 29.332 137.253 29.578 136.881 29.89L136.161 28.594C136.653 28.198 137.241 27.898 137.925 27.694C138.609 27.478 139.335 27.37 140.103 27.37ZM139.707 35.776C140.367 35.776 140.937 35.632 141.417 35.344C141.897 35.044 142.245 34.624 142.461 34.084V32.752H139.797C138.333 32.752 137.601 33.244 137.601 34.228C137.601 34.708 137.787 35.086 138.159 35.362C138.531 35.638 139.047 35.776 139.707 35.776ZM148.773 29.062C149.073 28.51 149.517 28.09 150.105 27.802C150.693 27.514 151.407 27.37 152.247 27.37V29.044C152.151 29.032 152.019 29.026 151.851 29.026C150.915 29.026 150.177 29.308 149.637 29.872C149.109 30.424 148.845 31.216 148.845 32.248V37H147.117V27.46H148.773V29.062Z" fill="white"/>
</g>
<defs>
<filter id="filter0_d" x="0" y="0" width="203" height="70" filterUnits="userSpaceOnUse" color-interpolation-filters="sRGB">
<feFlood flood-opacity="0" result="BackgroundImageFix"/>
<feColorMatrix in="SourceAlpha" type="matrix" values="0 0 0 0 0 0 0 0 0 0 0 0 0 0 0 0 0 0 127 0"/>
<feOffset dx="-5" dy="5"/>
<feGaussianBlur stdDeviation="5"/>
<feColorMatrix type="matrix" values="0 0 0 0 0 0 0 0 0 0 0 0 0 0 0 0 0 0 0.15 0"/>
<feBlend mode="normal" in2="BackgroundImageFix" result="effect1_dropShadow"/>
<feBlend mode="normal" in="SourceGraphic" in2="effect1_dropShadow" result="shape"/>
</filter>
</defs>
</svg>