<svg width="328" height="70" viewBox="0 0 328 70" fill="none" xmlns="http://www.w3.org/2000/svg">
<g filter="url(#filter0_d)">
<rect x="15" y="5" width="308" height="50" rx="25" fill="#22D6D6"/>
<path d="M307.237 32.7071C307.627 32.3166 307.627 31.6834 307.237 31.2929L300.873 24.9289C300.482 24.5384 299.849 24.5384 299.459 24.9289C299.068 25.3195 299.068 25.9526 299.459 26.3431L305.116 32L299.459 37.6569C299.068 38.0474 299.068 38.6805 299.459 39.0711C299.849 39.4616 300.482 39.4616 300.873 39.0711L307.237 32.7071ZM260.412 33H306.53V31H260.412V33Z" fill="white"/>
<path d="M58.2195 37L58.2015 27.82L53.6475 35.47H52.8195L48.2655 27.874V37H46.5375V24.4H48.0135L53.2695 33.256L58.4535 24.4H59.9295L59.9475 37H58.2195ZM66.6809 27.37C68.0009 27.37 69.0089 27.694 69.7049 28.342C70.4129 28.99 70.7669 29.956 70.7669 31.24V37H69.1289V35.74C68.8409 36.184 68.4269 36.526 67.8869 36.766C67.3589 36.994 66.7289 37.108 65.9969 37.108C64.9289 37.108 64.0709 36.85 63.4229 36.334C62.7869 35.818 62.4689 35.14 62.4689 34.3C62.4689 33.46 62.7749 32.788 63.3869 32.284C63.9989 31.768 64.9709 31.51 66.3029 31.51H69.0389V31.168C69.0389 30.424 68.8229 29.854 68.3909 29.458C67.9589 29.062 67.3229 28.864 66.4829 28.864C65.9189 28.864 65.3669 28.96 64.8269 29.152C64.2869 29.332 63.8309 29.578 63.4589 29.89L62.7389 28.594C63.2309 28.198 63.8189 27.898 64.5029 27.694C65.1869 27.478 65.9129 27.37 66.6809 27.37ZM66.2849 35.776C66.9449 35.776 67.5149 35.632 67.9949 35.344C68.4749 35.044 68.8229 34.624 69.0389 34.084V32.752H66.3749C64.9109 32.752 64.1789 33.244 64.1789 34.228C64.1789 34.708 64.3649 35.086 64.7369 35.362C65.1089 35.638 65.6249 35.776 66.2849 35.776ZM77.4027 32.554L75.4227 34.39V37H73.6947V23.644H75.4227V32.212L80.6247 27.46H82.7127L78.6987 31.402L83.1087 37H80.9847L77.4027 32.554ZM92.7342 32.284C92.7342 32.416 92.7222 32.59 92.6982 32.806H84.9582C85.0662 33.646 85.4322 34.324 86.0562 34.84C86.6922 35.344 87.4782 35.596 88.4142 35.596C89.5542 35.596 90.4722 35.212 91.1682 34.444L92.1222 35.56C91.6902 36.064 91.1502 36.448 90.5022 36.712C89.8662 36.976 89.1522 37.108 88.3602 37.108C87.3522 37.108 86.4582 36.904 85.6782 36.496C84.8982 36.076 84.2922 35.494 83.8602 34.75C83.4402 34.006 83.2302 33.166 83.2302 32.23C83.2302 31.306 83.4342 30.472 83.8422 29.728C84.2622 28.984 84.8322 28.408 85.5522 28C86.2842 27.58 87.1062 27.37 88.0182 27.37C88.9302 27.37 89.7402 27.58 90.4482 28C91.1682 28.408 91.7262 28.984 92.1222 29.728C92.5302 30.472 92.7342 31.324 92.7342 32.284ZM88.0182 28.828C87.1902 28.828 86.4942 29.08 85.9302 29.584C85.3782 30.088 85.0542 30.748 84.9582 31.564H91.0782C90.9822 30.76 90.6522 30.106 90.0882 29.602C89.5362 29.086 88.8462 28.828 88.0182 28.828ZM104.504 32.644V37H102.722V32.608L97.7176 24.4H99.6437L103.676 31.042L107.726 24.4H109.508L104.504 32.644ZM113.826 37.108C112.878 37.108 112.026 36.898 111.27 36.478C110.514 36.058 109.92 35.482 109.488 34.75C109.068 34.006 108.858 33.166 108.858 32.23C108.858 31.294 109.068 30.46 109.488 29.728C109.92 28.984 110.514 28.408 111.27 28C112.026 27.58 112.878 27.37 113.826 27.37C114.774 27.37 115.62 27.58 116.364 28C117.12 28.408 117.708 28.984 118.128 29.728C118.56 30.46 118.776 31.294 118.776 32.23C118.776 33.166 118.56 34.006 118.128 34.75C117.708 35.482 117.12 36.058 116.364 36.478C115.62 36.898 114.774 37.108 113.826 37.108ZM113.826 35.596C114.438 35.596 114.984 35.458 115.464 35.182C115.956 34.894 116.34 34.498 116.616 33.994C116.892 33.478 117.03 32.89 117.03 32.23C117.03 31.57 116.892 30.988 116.616 30.484C116.34 29.968 115.956 29.572 115.464 29.296C114.984 29.02 114.438 28.882 113.826 28.882C113.214 28.882 112.662 29.02 112.17 29.296C111.69 29.572 111.306 29.968 111.018 30.484C110.742 30.988 110.604 31.57 110.604 32.23C110.604 32.89 110.742 33.478 111.018 33.994C111.306 34.498 111.69 34.894 112.17 35.182C112.662 35.458 113.214 35.596 113.826 35.596ZM129.787 27.46V37H128.149V35.56C127.801 36.052 127.339 36.436 126.763 36.712C126.199 36.976 125.581 37.108 124.909 37.108C123.637 37.108 122.635 36.76 121.903 36.064C121.171 35.356 120.805 34.318 120.805 32.95V27.46H122.533V32.752C122.533 33.676 122.755 34.378 123.199 34.858C123.643 35.326 124.279 35.56 125.107 35.56C126.019 35.56 126.739 35.284 127.267 34.732C127.795 34.18 128.059 33.4 128.059 32.392V27.46H129.787ZM134.463 29.062C134.763 28.51 135.207 28.09 135.795 27.802C136.383 27.514 137.097 27.37 137.937 27.37V29.044C137.841 29.032 137.709 29.026 137.541 29.026C136.605 29.026 135.867 29.308 135.327 29.872C134.799 30.424 134.535 31.216 134.535 32.248V37H132.807V27.46H134.463V29.062ZM150.424 37.144C149.152 37.144 148.006 36.868 146.986 36.316C145.966 35.752 145.162 34.978 144.574 33.994C143.998 33.01 143.71 31.912 143.71 30.7C143.71 29.488 143.998 28.39 144.574 27.406C145.162 26.422 145.966 25.654 146.986 25.102C148.006 24.538 149.152 24.256 150.424 24.256C151.684 24.256 152.824 24.538 153.844 25.102C154.864 25.654 155.662 26.422 156.238 27.406C156.814 28.378 157.102 29.476 157.102 30.7C157.102 31.924 156.814 33.028 156.238 34.012C155.662 34.984 154.864 35.752 153.844 36.316C152.824 36.868 151.684 37.144 150.424 37.144ZM150.424 35.542C151.348 35.542 152.176 35.332 152.908 34.912C153.652 34.492 154.234 33.916 154.654 33.184C155.086 32.44 155.302 31.612 155.302 30.7C155.302 29.788 155.086 28.966 154.654 28.234C154.234 27.49 153.652 26.908 152.908 26.488C152.176 26.068 151.348 25.858 150.424 25.858C149.5 25.858 148.66 26.068 147.904 26.488C147.16 26.908 146.572 27.49 146.14 28.234C145.72 28.966 145.51 29.788 145.51 30.7C145.51 31.612 145.72 32.44 146.14 33.184C146.572 33.916 147.16 34.492 147.904 34.912C148.66 35.332 149.5 35.542 150.424 35.542ZM173.767 27.46L170.203 37H168.547L165.793 29.764L163.003 37H161.347L157.801 27.46H159.439L162.211 35.056L165.091 27.46H166.549L169.375 35.092L172.219 27.46H173.767ZM180.345 27.37C181.557 27.37 182.517 27.724 183.225 28.432C183.945 29.128 184.305 30.154 184.305 31.51V37H182.577V31.708C182.577 30.784 182.355 30.088 181.911 29.62C181.467 29.152 180.831 28.918 180.003 28.918C179.067 28.918 178.329 29.194 177.789 29.746C177.249 30.286 176.979 31.066 176.979 32.086V37H175.251V27.46H176.907V28.9C177.255 28.408 177.723 28.03 178.311 27.766C178.911 27.502 179.589 27.37 180.345 27.37ZM194.55 25.966H190.23V24.4H200.652V25.966H196.332V37H194.55V25.966ZM207.855 37.144C206.583 37.144 205.437 36.868 204.417 36.316C203.397 35.752 202.593 34.978 202.005 33.994C201.429 33.01 201.141 31.912 201.141 30.7C201.141 29.488 201.429 28.39 202.005 27.406C202.593 26.422 203.397 25.654 204.417 25.102C205.437 24.538 206.583 24.256 207.855 24.256C209.115 24.256 210.255 24.538 211.275 25.102C212.295 25.654 213.093 26.422 213.669 27.406C214.245 28.378 214.533 29.476 214.533 30.7C214.533 31.924 214.245 33.028 213.669 34.012C213.093 34.984 212.295 35.752 211.275 36.316C210.255 36.868 209.115 37.144 207.855 37.144ZM207.855 35.542C208.779 35.542 209.607 35.332 210.339 34.912C211.083 34.492 211.665 33.916 212.085 33.184C212.517 32.44 212.733 31.612 212.733 30.7C212.733 29.788 212.517 28.966 212.085 28.234C211.665 27.49 211.083 26.908 210.339 26.488C209.607 26.068 208.779 25.858 207.855 25.858C206.931 25.858 206.091 26.068 205.335 26.488C204.591 26.908 204.003 27.49 203.571 28.234C203.151 28.966 202.941 29.788 202.941 30.7C202.941 31.612 203.151 32.44 203.571 33.184C204.003 33.916 204.591 34.492 205.335 34.912C206.091 35.332 206.931 35.542 207.855 35.542ZM217.014 24.4H218.814V37H217.014V24.4ZM230.345 33.85H223.649L222.263 37H220.409L226.115 24.4H227.897L233.621 37H231.731L230.345 33.85ZM229.715 32.41L226.997 26.236L224.279 32.41H229.715Z" fill="white"/>
</g>
<defs>
<filter id="filter0_d" x="0" y="0" width="328" height="70" filterUnits="userSpaceOnUse" color-interpolation-filters="sRGB">
<feFlood flood-opacity="0" result="BackgroundImageFix"/>
<feColorMatrix in="SourceAlpha" type="matrix" values="0 0 0 0 0 0 0 0 0 0 0 0 0 0 0 0 0 0 127 0"/>
<feOffset dx="-5" dy="5"/>
<feGaussianBlur stdDeviation="5"/>
<feColorMatrix type="matrix" values="0 0 0 0 0 0 0 0 0 0 0 0 0 0 0 0 0 0 0.15 0"/>
<feBlend mode="normal" in2="BackgroundImageFix" result="effect1_dropShadow"/>
<feBlend mode="normal" in="SourceGraphic" in2="effect1_dropShadow" result="shape"/>
</filter>
</defs>
</svg>
