<svg width="63" height="68" viewBox="0 0 63 68" fill="none" xmlns="http://www.w3.org/2000/svg">
<path d="M22.9507 5.00982C20.8392 5.50906 18.9681 7.35108 18.4359 9.45134L18.2471 10.2432L12.5651 10.3293C7.31224 10.4154 6.88308 10.4326 6.53976 10.7425C5.99044 11.2417 6.04194 12.2574 6.62559 12.7222L7.08908 13.0837H31.5853H56.0814L56.5449 12.7222C57.1801 12.223 57.1801 11.1901 56.5449 10.6908C56.0986 10.3465 55.8926 10.3293 50.5539 10.3293H45.0092L44.8891 9.69235C44.6316 8.26349 43.6359 6.81741 42.3141 5.95665C40.6662 4.85488 40.3229 4.82045 31.4994 4.83766C27.1564 4.85488 23.3111 4.92374 22.9507 5.00982ZM40.4945 8.00526C41.1468 8.38399 41.9708 9.34804 42.1425 9.93336L42.2455 10.3293H31.6883C23.7746 10.3293 21.1139 10.2777 21.1139 10.1227C21.1139 10.0194 21.3027 9.60627 21.543 9.19311C21.852 8.67665 22.2297 8.33235 22.8648 8.02247L23.7746 7.55766L31.8428 7.60931C39.5504 7.66096 39.928 7.67817 40.4945 8.00526Z" fill="black"/>
<path d="M6.62601 16.1996C6.28268 16.475 6.17969 16.6988 6.17969 17.2497C6.17969 17.9039 10.6772 59.3064 10.9176 60.8386C10.9862 61.2173 11.2094 61.6993 11.4325 61.9231L11.8274 62.3191H31.5857H51.344L51.7388 61.9231C51.962 61.6993 52.1851 61.2173 52.2538 60.8386C52.477 59.3236 56.9917 17.8867 56.9917 17.2497C56.9917 16.6988 56.8887 16.475 56.5453 16.1996L56.0819 15.8381H31.5857H7.0895L6.62601 16.1996ZM54.1421 18.8852C54.1077 19.0573 53.1121 28.0953 51.9276 38.9925C50.7432 49.8725 49.7304 58.9621 49.6789 59.1687L49.6102 59.5647H31.5857H13.5612L13.4925 59.1687C13.441 58.9621 12.4282 49.8725 11.2437 38.9925C10.0593 28.0953 9.06361 19.0573 9.02928 18.8852C8.96061 18.6097 10.1279 18.5925 31.5857 18.5925C53.0434 18.5925 54.2107 18.6097 54.1421 18.8852Z" fill="black"/>
<path d="M18.9506 25.8574C18.7446 25.9435 18.4871 26.2189 18.3841 26.4427C18.2468 26.7526 18.1953 30.5227 18.1953 39.268V51.663L18.6245 52.0761C19.1738 52.6442 19.9634 52.6442 20.5128 52.0761L20.9419 51.663V39.1819C20.9419 32.3303 20.8904 26.5804 20.8389 26.4255C20.7187 26.1328 19.8948 25.6508 19.5343 25.668C19.4141 25.668 19.1395 25.7541 18.9506 25.8574Z" fill="black"/>
<path d="M30.9844 25.8574C30.1948 26.2878 30.2119 25.8918 30.2119 39.1131V51.663L30.6411 52.0761C31.1904 52.6442 31.9801 52.6442 32.5294 52.0761L32.9585 51.663V39.1819C32.9585 32.3303 32.907 26.5804 32.8555 26.4255C32.7354 26.1328 31.9286 25.6508 31.5509 25.6508C31.4307 25.6508 31.1733 25.7541 30.9844 25.8574Z" fill="black"/>
<path d="M43.001 25.8574C42.2114 26.2878 42.2285 25.8918 42.2285 39.1131V51.663L42.6577 52.0761C43.207 52.6442 43.9967 52.6442 44.546 52.0761L44.9751 51.663V39.268C44.9751 30.5571 44.9236 26.7526 44.7863 26.4599C44.5975 26.0468 43.9795 25.6508 43.5503 25.6508C43.4302 25.6508 43.1899 25.7541 43.001 25.8574Z" fill="black"/>
</svg>
