<svg width="104" height="21" viewBox="0 0 104 21" fill="none" xmlns="http://www.w3.org/2000/svg">
<path d="M0.706676 20V0.363636H13.7081V3.78658H4.85831V8.46555H12.8452V11.8885H4.85831V20H0.706676ZM16.5006 20V0.363636H20.6523V16.5771H29.0706V20H16.5006ZM43.9489 0.363636H48.1005V13.1158C48.1005 14.5476 47.7585 15.8004 47.0746 16.8743C46.397 17.9482 45.4478 18.7855 44.2269 19.3864C43.006 19.9808 41.5838 20.2781 39.9602 20.2781C38.3303 20.2781 36.9048 19.9808 35.6839 19.3864C34.4631 18.7855 33.5138 17.9482 32.8363 16.8743C32.1587 15.8004 31.82 14.5476 31.82 13.1158V0.363636H35.9716V12.761C35.9716 13.5089 36.1346 14.1737 36.4606 14.7553C36.793 15.337 37.2596 15.794 37.8604 16.1264C38.4613 16.4588 39.1612 16.625 39.9602 16.625C40.7656 16.625 41.4656 16.4588 42.06 16.1264C42.6609 15.794 43.1243 15.337 43.4503 14.7553C43.7827 14.1737 43.9489 13.5089 43.9489 12.761V0.363636ZM51.5162 20V0.363636H64.7478V3.78658H55.6679V8.46555H64.067V11.8885H55.6679V16.5771H64.7861V20H51.5162ZM84.4728 0.363636V20H80.8869L72.3439 7.64098H72.2001V20H68.0485V0.363636H71.6919L80.1678 12.7131H80.3404V0.363636H84.4728ZM87.1551 3.78658V0.363636H103.282V3.78658H97.2705V20H93.1668V3.78658H87.1551Z" fill="black"/>
</svg>
