<svg width="24" height="20" viewBox="0 0 24 20" fill="none" xmlns="http://www.w3.org/2000/svg">
<path fill-rule="evenodd" clip-rule="evenodd" d="M16.2967 12.3155C16.4273 11.8394 16.4974 11.3348 16.4974 10.8125C16.4974 7.91301 14.3359 5.5625 11.6696 5.5625C11.1893 5.5625 10.7253 5.63878 10.2874 5.78082L11.9404 7.57833C13.1335 7.71738 14.2697 8.76281 14.4672 10.3261L16.2967 12.3155ZM9.2631 9.09894C8.99999 9.58074 8.8418 10.1598 8.8418 10.8125C8.8418 12.7686 10.2624 14.0625 11.6696 14.0625C12.2372 14.0625 12.807 13.852 13.2849 13.4724L14.6428 14.9491C13.8232 15.6467 12.7911 16.0625 11.6696 16.0625C9.00329 16.0625 6.8418 13.712 6.8418 10.8125C6.8418 9.59297 7.22417 8.47056 7.86566 7.57931L9.2631 9.09894Z" fill="#7D7D7D"/>
<path fill-rule="evenodd" clip-rule="evenodd" d="M19.5975 15.905C20.9495 14.6274 22.0022 13.3 22.6445 12.4178C22.6652 12.3895 22.6866 12.3604 22.7087 12.3304L22.7093 12.3297L22.7093 12.3297C22.9791 11.964 23.3394 11.4756 23.3394 10.8125C23.3394 10.1494 22.9791 9.66101 22.7093 9.29528C22.687 9.26508 22.6653 9.23573 22.6445 9.20717C21.8444 8.1084 20.4079 6.31905 18.5493 4.79517C16.7048 3.28291 14.3291 1.9375 11.6697 1.9375C10.238 1.9375 8.88846 2.32745 7.65981 2.92345L9.08737 4.47584C9.92636 4.13563 10.7925 3.9375 11.6697 3.9375C13.6597 3.9375 15.5922 4.957 17.2812 6.34178C18.956 7.71493 20.2779 9.35473 21.0277 10.3845C21.1139 10.5028 21.1786 10.5918 21.2324 10.6699C21.2775 10.7355 21.3057 10.7805 21.324 10.8125C21.3057 10.8445 21.2775 10.8895 21.2324 10.9551C21.1786 11.0332 21.1139 11.1222 21.0277 11.2405C20.4282 12.0639 19.4628 13.2774 18.2436 14.4328L19.5975 15.905ZM6.44506 6.0345C6.31478 6.13465 6.18581 6.23717 6.05823 6.34178C4.38345 7.71493 3.06149 9.35473 2.31168 10.3845C2.22553 10.5028 2.16079 10.5918 2.10707 10.6699C2.06196 10.7355 2.0337 10.7805 2.01544 10.8125C2.0337 10.8445 2.06196 10.8895 2.10707 10.9551C2.16079 11.0332 2.22553 11.1222 2.31168 11.2405C3.06149 12.2703 4.38345 13.9101 6.05823 15.2832C7.74718 16.668 9.67975 17.6875 11.6697 17.6875C13.13 17.6875 14.5593 17.1385 15.8842 16.299L17.2568 17.7916C15.6453 18.8692 13.7438 19.6875 11.6697 19.6875C9.01029 19.6875 6.63459 18.3421 4.79016 16.8298C2.93154 15.306 1.49498 13.5166 0.694896 12.4178C0.674119 12.3893 0.652472 12.36 0.630209 12.3298L0.630168 12.3297C0.360332 11.964 0 11.4756 0 10.8125C0 10.1494 0.360332 9.66101 0.630167 9.29528L0.630237 9.29519C0.65249 9.26502 0.674127 9.2357 0.694895 9.20718C1.49498 8.1084 2.93154 6.31905 4.79016 4.79517C4.88751 4.71535 4.98634 4.63599 5.08662 4.55727L6.44506 6.0345Z" fill="#7D7D7D"/>
<path d="M3.77344 1L20.326 19" stroke="#7D7D7D" stroke-width="2"/>
</svg>
