<svg width="25" height="26" viewBox="0 0 25 26" fill="none" xmlns="http://www.w3.org/2000/svg">
<path d="M9.37498 14.0418C11.6762 14.0418 13.5416 12.1763 13.5416 9.87516C13.5416 7.57398 11.6762 5.7085 9.37498 5.7085C7.07379 5.7085 5.20831 7.57398 5.20831 9.87516C5.20831 12.1763 7.07379 14.0418 9.37498 14.0418Z" fill="#77738B"/>
<path d="M9.37502 16.1252C6.59377 16.1252 1.04169 17.521 1.04169 20.2918V22.3752H17.7084V20.2918C17.7084 17.521 12.1563 16.1252 9.37502 16.1252ZM17.4584 6.0835L15.7084 7.84391C16.5834 9.07308 16.5834 10.6668 15.7084 11.896L17.4584 13.6564C19.5625 11.5522 19.5625 8.37516 17.4584 6.0835ZM20.9063 2.5835L19.2084 4.28141C22.0938 7.42725 22.0938 12.1564 19.2084 15.4689L20.9063 17.1668C24.9688 13.1147 24.9792 6.80225 20.9063 2.5835Z" fill="#77738B"/>
</svg>
