<svg width="242" height="357" viewBox="0 0 242 357" fill="none" xmlns="http://www.w3.org/2000/svg">
<path d="M86.2852 322.921L90.3146 346.506L101.997 347.634L97.9485 321.294L86.2852 322.921Z" fill="#FCC9A7"/>
<path d="M88.7065 344.88C88.9468 344.048 89.8156 343.734 90.444 344.233C91.6455 345.231 93.8081 346.433 96.8949 346.008C100.111 345.583 101.257 343.623 101.682 342.255C101.904 341.535 102.588 341.146 103.198 341.424L125.064 350.592C126.284 351.146 127.246 352.237 127.745 353.605C128.225 354.898 127.393 356.322 126.174 356.34L90.3516 356.562C89.0207 356.562 87.9487 355.305 88.0227 353.771L88.3368 346.303C88.3368 346.174 88.3553 346.063 88.3923 345.934L88.7065 344.88Z" fill="#1F252A"/>
<path d="M39.0589 214.402H34.29V353.456H39.0589V214.402Z" fill="#2A272D"/>
<path d="M28.7256 185.807L62.884 248.542L84.4918 335.694H104.103L90.1109 238.838L28.7256 185.807Z" fill="#232322"/>
<path d="M56.9143 212.35H14.2164C8.09817 212.35 3.12598 207.396 3.12598 201.26C3.12598 195.141 8.07968 190.169 14.2164 190.169H56.9143C63.0325 190.169 68.0047 195.141 68.0047 201.26C68.0047 207.396 63.0325 212.35 56.9143 212.35Z" fill="#FFEEE3"/>
<path d="M57.1736 212.35H16.1392V216.453H57.1736V212.35Z" fill="#2A272D"/>
<path d="M57.1736 319.705H16.1392V323.809H57.1736V319.705Z" fill="#2A272D"/>
<path d="M34.4562 72.186C26.2308 71.1878 18.4306 76.1601 15.2883 83.8124C12.6266 90.2633 10.4085 99.6162 12.7745 110.466C19.9832 143.682 15.6765 166.658 15.6765 166.658H54.7331L54.5853 121.427C54.5853 121.427 57.2839 116.159 58.7442 109.265C60.7959 99.6162 60.0195 98.3593 54.3819 89.8197L42.3858 75.1804C42.4043 75.1804 39.7241 72.8144 34.4562 72.186Z" fill="#FFD686"/>
<path d="M105.49 104.237C108.096 99.0248 114.417 96.9176 119.63 99.5238C124.842 102.13 126.949 108.452 124.343 113.664C121.737 118.877 115.415 120.984 110.203 118.377C104.99 115.79 102.883 109.45 105.49 104.237Z" fill="#FCC9A7"/>
<path d="M107.8 101.187L87.9487 120.041L95.4902 128.433L110.961 115.18L107.8 101.187Z" fill="#FCC9A7"/>
<path d="M21.0743 101.446L56.9887 156.029C58.375 158.118 61.2215 158.617 63.2363 157.101L106.581 123.054L97.8013 107.989L64.2714 133.608L40.8337 90.2633C37.7099 83.757 29.4106 81.7792 23.6806 86.1414C18.9117 89.7643 17.7842 96.4554 21.0743 101.446Z" fill="#FFD686"/>
<path d="M36.7115 80.4483C34.438 80.4298 32.0166 79.4871 30.2236 78.5629C28.4492 77.6571 27.3401 75.7903 27.3586 73.794L27.7283 37.1218L43.7539 37.1958L43.3843 73.4059C43.3658 77.5648 40.3713 80.4667 36.7115 80.4483Z" fill="#FCC9A7"/>
<path d="M43.4952 63.2398L36.8779 53.8684C36.8779 53.8684 32.8299 64.5706 43.4582 67.8608L43.4952 63.2398Z" fill="#F2C09E"/>
<path d="M57.9311 37.2697C57.8756 48.1937 48.9848 56.9921 38.0608 56.9367C27.1368 56.8812 18.3384 47.9904 18.3938 37.0664C18.4493 26.1424 27.3401 17.344 38.2641 17.3994C49.1696 17.4549 57.968 26.3457 57.9311 37.2697Z" fill="#FCC9A7"/>
<path d="M44.9001 63.3505C39.7245 63.332 35.5287 59.0992 35.5657 53.9237L35.6211 40.3934L57.9128 37.2696L57.8573 50.5226C57.8204 57.639 52.0349 63.3875 44.9001 63.3505Z" fill="#FCC9A7"/>
<path d="M57.3217 41.6873L61.61 48.0643C62.22 49.0994 61.4252 50.3747 60.1498 50.3747L55.1406 51.2989L57.3217 41.6873Z" fill="#FCC9A7"/>
<path d="M35.6398 45.8095L44.0499 45.5138C44.0499 45.5138 44.7708 38.2125 46.4159 36.4566C48.061 34.7006 48.8927 26.9004 48.8927 26.9004C48.8927 26.9004 44.9187 31.7617 43.7542 36.7893L61.3694 36.3457C61.3694 36.3457 63.9942 14.9782 37.3218 13.9431C10.6309 12.908 11.3703 38.1571 16.6197 43.1663C20.7971 47.1588 27.5622 56.9553 27.5622 56.9553C27.5622 56.9553 27.248 46.1053 35.6398 45.8095Z" fill="#4C1827"/>
<path d="M41.7387 43.2217C41.8496 46.3455 39.4097 48.9517 36.3044 49.0626C33.1806 49.1735 30.5744 46.7337 30.445 43.6283C30.3341 40.5046 32.774 37.8983 35.8793 37.769C39.0031 37.6581 41.6093 40.0979 41.7387 43.2217Z" fill="#FCC9A7"/>
<path d="M25.4362 11.2074C26.2864 18.2128 21.3143 24.5713 14.3273 25.44C7.32191 26.2903 0.963401 21.3181 0.0946546 14.3127C-0.755608 7.30729 4.21656 0.948798 11.222 0.0985353C18.2274 -0.770211 24.5859 4.20197 25.4362 11.2074Z" fill="#4C1827"/>
<path d="M27.9868 76.3264C27.9868 76.3264 29.521 81.1137 50.9254 85.5684L40.981 72.0381L27.9868 76.3264Z" fill="#FCC9A7"/>
<path d="M36.6745 346.433L7.9873 356.248H65.3246L36.6745 346.433Z" fill="#2A272D"/>
<path d="M38.8369 287.635L23.144 306.507L34.4193 310.796L50.1676 290.814L38.8369 287.635Z" fill="#FCC9A7"/>
<path d="M23.6797 303.938C24.2342 303.291 25.1584 303.328 25.528 304.049C26.2304 305.454 27.7092 307.413 30.722 308.263C33.8458 309.151 37.2653 306.415 38.1895 305.325C38.6701 304.752 39.465 304.659 39.9086 305.177L59.1134 318.651C60.0006 319.65 60.4442 321.036 60.3703 322.496C60.2964 323.864 58.9655 324.844 57.838 324.363L19.835 314.751C18.615 314.215 18.1345 312.626 18.8184 311.258L22.7739 305.084C22.8293 304.973 22.9033 304.862 22.9773 304.77L23.6797 303.938Z" fill="#1F252A"/>
<path d="M14.5491 166.658C14.5491 166.658 2.7933 193.422 44.5671 207.674L73.439 234.494L28.7448 294.345L48.726 301.572L102.995 243.828C107.006 239.152 107.172 231.98 103.383 227.1L54.7518 166.639H14.5491V166.658Z" fill="#383635"/>
<path d="M241.865 143.017H99.1499V150.965H241.865V143.017Z" fill="#FFEEE3"/>
<path d="M134.251 356.285V150.965" stroke="#2A272D" stroke-width="2.2811" stroke-miterlimit="10"/>
<path d="M205.618 356.285V150.965" stroke="#2A272D" stroke-width="2.2811" stroke-miterlimit="10"/>
<path d="M188.76 138.691H129.39V142.536H188.76V138.691Z" fill="#2A272D"/>
<path d="M188.76 142.554L207.983 86.4371L203.953 85.476L185.118 139.375L188.76 142.554Z" fill="#2A272D"/>
<path d="M54.2341 151.852L25.5654 108.267" stroke="#EFC375" stroke-width="0.7847" stroke-miterlimit="10" stroke-linecap="round" stroke-linejoin="round"/>
<path d="M55.9718 117.657L45.0293 100.356" stroke="#EFC375" stroke-width="0.7847" stroke-miterlimit="10" stroke-linecap="round" stroke-linejoin="round"/>
</svg>
