<svg width="153" height="31" viewBox="0 0 153 31" fill="none" xmlns="http://www.w3.org/2000/svg">
<path d="M0.528409 30V0.90909H19.7898V5.98011H6.67898V12.9119H18.5114V17.983H6.67898V30H0.528409ZM23.9268 30V0.90909H30.0774V24.929H42.549V30H23.9268ZM64.5909 0.90909H70.7415V19.8011C70.7415 21.9223 70.2348 23.7784 69.2216 25.3693C68.2178 26.9602 66.8116 28.2008 65.0028 29.0909C63.1941 29.9716 61.0871 30.4119 58.6818 30.4119C56.267 30.4119 54.1553 29.9716 52.3466 29.0909C50.5379 28.2008 49.1316 26.9602 48.1278 25.3693C47.1241 23.7784 46.6222 21.9223 46.6222 19.8011V0.90909H52.7727V19.2756C52.7727 20.3835 53.0142 21.3684 53.4972 22.2301C53.9896 23.0919 54.6809 23.7689 55.571 24.2614C56.4612 24.7538 57.4981 25 58.6818 25C59.875 25 60.9119 24.7538 61.7926 24.2614C62.6828 23.7689 63.3693 23.0919 63.8523 22.2301C64.3447 21.3684 64.5909 20.3835 64.5909 19.2756V0.90909ZM75.8018 30V0.90909H95.4041V5.98011H81.9524V12.9119H94.3956V17.983H81.9524V24.929H95.4609V30H75.8018ZM124.626 0.90909V30H119.314L106.658 11.6903H106.445V30H100.294V0.90909H105.692L118.249 19.2045H118.504V0.90909H124.626ZM128.6 5.98011V0.90909H152.492V5.98011H143.586V30H137.506V5.98011H128.6Z" fill="white"/>
</svg>
